<?xml version="1.0" encoding="UTF-8" standalone="no"?><svg width="100mm" height="100mm" viewBox="0 0 100 100" version="1.1" id="svg1" xml:space="preserve" xmlns="http://www.w3.org/2000/svg" xmlns:svg="http://www.w3.org/2000/svg"><defs id="defs1"><clipPath clipPathUnits="userSpaceOnUse" id="clipPath14"><path id="lpe_path-effect14" style="fill:#fdd900;fill-opacity:0.334262;fill-rule:evenodd;stroke-width:2.64583;stroke-dashoffset:10" class="powerclip" d="M 44.088036,68.081772 H 162.83018 V 186.82391 H 44.088036 Z M 182.40224,106.17751 a 54.371071,54.371071 0 0 0 -54.37107,-54.371068 54.371071,54.371071 0 0 0 -54.371067,54.371068 54.371071,54.371071 0 0 0 54.371067,54.37107 54.371071,54.371071 0 0 0 54.37107,-54.37107 z" /></clipPath><clipPath clipPathUnits="userSpaceOnUse" id="clipPath14-3"><path id="lpe_path-effect14-8" style="fill:#fdd900;fill-opacity:0.334262;fill-rule:evenodd;stroke-width:2.64583;stroke-dashoffset:10" class="powerclip" d="M 44.088036,68.081772 H 162.83018 V 186.82391 H 44.088036 Z M 182.40224,106.17751 a 54.371071,54.371071 0 0 0 -54.37107,-54.371068 54.371071,54.371071 0 0 0 -54.371067,54.371068 54.371071,54.371071 0 0 0 54.371067,54.37107 54.371071,54.371071 0 0 0 54.37107,-54.37107 z" /></clipPath><clipPath clipPathUnits="userSpaceOnUse" id="clipPath206"><circle style="display:inline;fill:#514bbf;fill-opacity:1;fill-rule:evenodd;stroke-width:2.71037;stroke-dashoffset:10" id="circle206" cx="107.41698" cy="152.54716" r="64.71698" /></clipPath><clipPath clipPathUnits="userSpaceOnUse" id="clipPath207"><circle style="display:inline;fill:#514bbf;fill-opacity:1;fill-rule:evenodd;stroke-width:2.71037;stroke-dashoffset:10" id="circle207" cx="107.41698" cy="152.54716" r="64.71698" /></clipPath><clipPath clipPathUnits="userSpaceOnUse" id="clipPath208"><circle style="display:inline;fill:#514bbf;fill-opacity:1;fill-rule:evenodd;stroke-width:2.71037;stroke-dashoffset:10" id="circle208" cx="107.41698" cy="152.54716" r="64.71698" /></clipPath></defs><g id="layer2" transform="matrix(0.6489796,0,0,0.64897656,-19.468926,-48.328834)"><g id="layer1" style="display:inline"><circle style="display:inline;fill:#514bbf;fill-opacity:1;fill-rule:evenodd;stroke:none;stroke-width:0.697505;stroke-dasharray:none;stroke-dashoffset:10;stroke-opacity:1" id="path11-4" cx="-107.41698" cy="152.54698" r="64.71698" transform="scale(-1,1)" /></g><g id="layer5" style="display:inline"><path id="path13" clip-path="url(#clipPath14)" style="display:inline;fill:#feac00;fill-opacity:1;fill-rule:evenodd;stroke-width:2.64583;stroke-dashoffset:10" d="m 77.377848,79.903776 a 54.371071,54.371071 0 0 0 -28.289746,47.549034 54.371071,54.371071 0 0 0 54.370838,54.37084 54.371071,54.371071 0 0 0 29.24266,-8.5478 56.813145,56.813145 0 0 1 -5.00538,1.13275 56.813145,56.813145 0 0 1 -8.02173,0.64906 56.813145,56.813145 0 0 1 -8.0331,-0.49144 56.813145,56.813145 0 0 1 -7.88324,-1.62109 56.813145,56.813145 0 0 1 -7.574731,-2.71922 56.813145,56.813145 0 0 1 -7.114812,-3.76204 56.813145,56.813145 0 0 1 -6.511747,-4.72995 56.813145,56.813145 0 0 1 -5.777942,-5.60224 56.813145,56.813145 0 0 1 -4.928898,-6.3624 56.813145,56.813145 0 0 1 -3.979602,-6.99544 56.813145,56.813145 0 0 1 -2.951758,-7.4874 56.813145,56.813145 0 0 1 -1.863969,-7.82949 56.813145,56.813145 0 0 1 -0.738973,-8.01398 56.813145,56.813145 0 0 1 0.40101,-8.03827 56.813145,56.813145 0 0 1 1.532723,-7.90081 56.813145,56.813145 0 0 1 2.633947,-7.604707 56.813145,56.813145 0 0 1 3.681946,-7.15667 56.813145,56.813145 0 0 1 4.656047,-6.564457 56.813145,56.813145 0 0 1 2.156457,-2.27428 z" transform="translate(1.9811321,1.7610063)" /><path id="path76" clip-path="url(#clipPath14)" style="display:inline;fill:#fdca00;fill-opacity:1;fill-rule:evenodd;stroke-width:2.64583;stroke-dashoffset:10" d="m 77.377848,79.903776 a 56.813145,56.813145 0 0 0 -2.156457,2.27428 56.813145,56.813145 0 0 0 -4.656047,6.564457 56.813145,56.813145 0 0 0 -3.681946,7.15667 56.813145,56.813145 0 0 0 -2.633947,7.604707 56.813145,56.813145 0 0 0 -1.532723,7.90081 56.813145,56.813145 0 0 0 -0.40101,8.03827 56.813145,56.813145 0 0 0 0.738973,8.01398 56.813145,56.813145 0 0 0 1.863969,7.82949 56.813145,56.813145 0 0 0 2.951758,7.4874 56.813145,56.813145 0 0 0 3.979602,6.99544 56.813145,56.813145 0 0 0 4.928898,6.3624 56.813145,56.813145 0 0 0 5.777942,5.60224 56.813145,56.813145 0 0 0 6.511747,4.72995 56.813145,56.813145 0 0 0 7.114812,3.76204 56.813145,56.813145 0 0 0 7.574731,2.71922 56.813145,56.813145 0 0 0 7.88324,1.62109 56.813145,56.813145 0 0 0 8.0331,0.49144 56.813145,56.813145 0 0 0 8.02173,-0.64906 56.813145,56.813145 0 0 0 5.00538,-1.13275 54.371071,54.371071 0 0 0 25.1287,-45.82304 54.371071,54.371071 0 0 0 -54.37136,-54.370839 54.371071,54.371071 0 0 0 -26.081092,6.821805 z" transform="matrix(1.0015263,0,0,1.0015263,1.7402314,1.6494593)" /><circle style="display:inline;fill:#e1a800;fill-opacity:0.658824;fill-rule:evenodd;stroke-width:2.64583;stroke-dashoffset:10" id="path78" cx="110.04627" cy="167.94899" r="5.75914" /><path id="path76-0" clip-path="url(#clipPath14-3)" style="display:inline;fill:#e1a800;fill-opacity:0.657382;fill-rule:evenodd;stroke-width:2.64583;stroke-dashoffset:10" d="m 81.254191,123.92839 a 8.7032527,8.9363755 0 0 0 -8.703496,8.93672 8.7032527,8.9363755 0 0 0 8.703496,8.9362 8.7032527,8.9363755 0 0 0 8.702981,-8.9362 8.7032527,8.9363755 0 0 0 -8.702981,-8.93672 z" transform="matrix(1.0015263,0,0,1.0015263,1.7423924,1.6612956)" /></g><g id="layer3" style="display:inline"><path style="display:inline;fill:#4843a7;fill-opacity:1;fill-rule:evenodd;stroke-width:2.64583;stroke-dashoffset:10" d="m 124.40393,137.91773 c 2.76861,-4.47495 8.16811,-2.25774 9.5833,-5.93234 1.11921,-2.90607 0.55251,-3.4519 3.96226,-6.86165 4.2794,-4.27941 7.57329,-2.61854 10.81287,-4.62264 2.72017,-1.68278 -1.16914,-4.09926 6.97954,-10.31921 0,0 6.02357,4.94912 11.25285,17.14068 5.03621,11.74143 4.99869,23.05116 4.99869,23.05116 0,0 -22.47813,-0.0645 -41.82389,-0.37578 -3.30831,-0.0532 -10.21701,-4.88535 -5.76562,-12.08022 z" id="path65" /><path id="path69" style="display:inline;fill:#7a79de;fill-opacity:1;fill-rule:evenodd;stroke-width:2.61674;stroke-dashoffset:10" d="m 95.967931,161.78753 c -9.519398,0.0161 -17.306446,7.62404 -17.590061,17.1855 -3.479916,0.80427 -6.431805,3.40127 -7.986018,7.0259 -2.512672,-1.24884 -5.348844,-1.90529 -8.234024,-1.90582 -9.256523,-3e-5 -16.760485,6.60855 -16.760662,14.76077 -1.6e-4,8.15241 7.503901,14.76133 16.760662,14.7613 6.925948,-0.008 13.132421,-3.7685 15.61898,-9.46152 0.938028,0.28507 1.90427,0.43311 2.875313,0.44051 4.627564,-0.0116 8.791062,-3.19349 10.541372,-8.05612 1.553167,0.44393 3.15967,0.6713 4.774438,0.67575 3.023577,-0.0153 5.992409,-0.81186 8.621139,-2.31312 1.5356,6.66707 6.83688,11.32183 12.90772,11.33357 7.38115,-1.5e-4 13.36474,-6.79226 13.36488,-15.17078 1.2e-4,-8.37873 -5.98354,-15.17116 -13.36488,-15.17132 -1.40513,0.008 -4.43496,-0.89116 -5.76873,-0.38925 -1.3849,-8.57316 -7.11679,-13.71293 -15.760129,-13.71537 z" clip-path="url(#clipPath208)" /><path id="path72" style="display:inline;fill:#8589e5;fill-opacity:1;fill-rule:evenodd;stroke-width:2.51247;stroke-dashoffset:10" d="m 112.30499,167.66447 a 20.348428,18.480102 0 0 0 -20.348036,18.48023 20.348428,18.480102 0 0 0 0.63253,4.40544 13.716348,13.18972 0 0 0 -6.185178,10.70009 11.75687,9.2762865 0 0 0 -3.943301,-0.53895 11.75687,9.2762865 0 0 0 -11.756841,9.2762 11.75687,9.2762865 0 0 0 11.756841,9.27621 11.75687,9.2762865 0 0 0 11.040742,-6.15559 13.716348,13.18972 0 0 0 6.594523,1.66257 13.716348,13.18972 0 0 0 13.32916,-10.21889 20.348428,18.480102 0 0 0 19.2281,-18.40708 20.348428,18.480102 0 0 0 -20.34854,-18.48023 z" clip-path="url(#clipPath207)" /><path id="path74" style="display:inline;fill:#7a79de;fill-opacity:1;fill-rule:evenodd;stroke-width:2.64583;stroke-dashoffset:10" d="m 141.01868,184.23882 a 13.77524,13.463936 0 0 0 -13.77487,13.46429 13.77524,13.463936 0 0 0 0.11369,1.55598 31.519615,18.756119 0 0 0 -7.50755,-0.54415 31.519615,18.756119 0 0 0 -31.519519,18.75596 31.519615,18.756119 0 0 0 31.519519,18.75596 31.519615,18.756119 0 0 0 31.51952,-18.75596 31.519615,18.756119 0 0 0 -3.23132,-8.26616 13.77524,13.463936 0 0 0 6.65592,-11.50163 13.77524,13.463936 0 0 0 -13.77539,-13.46429 z" clip-path="url(#clipPath206)" /></g><g id="layer4" style="display:inline"><path id="path66-8" style="display:inline;fill:#ffffee;fill-opacity:1;fill-rule:evenodd;stroke-width:1.28206;stroke-dashoffset:10" d="m 147.25161,186.2517 c -0.81291,0.57703 -1.88105,-0.80259 -2.87787,-0.81358 -1.08527,-0.012 -2.28101,1.46405 -3.15199,0.81646 -0.79998,-0.59481 0.18203,-2.037 -0.11555,-2.98843 -0.32399,-1.03585 -2.09726,-1.71696 -1.75051,-2.74541 0.31849,-0.94465 1.99354,-0.45636 2.80645,-1.03339 0.88504,-0.62822 0.98484,-2.52518 2.07011,-2.51321 0.99683,0.011 1.05005,1.75496 1.85004,2.34977 0.87097,0.64759 2.70592,0.15631 3.02991,1.19216 0.29758,0.95144 -1.34458,1.54097 -1.66307,2.48562 -0.34674,1.02845 0.68751,2.62178 -0.19752,3.25001 z" /><path id="path66" style="display:inline;fill:#ffffff;fill-opacity:1;fill-rule:evenodd;stroke-width:2.38763;stroke-dashoffset:10" d="m 68.530662,169.93362 c -1.51391,1.07462 -3.50314,-1.49469 -5.359568,-1.51515 -2.021143,-0.0223 -4.248018,2.72655 -5.87006,1.52052 -1.489848,-1.10774 0.339,-3.79358 -0.215199,-5.56547 -0.603371,-1.92911 -3.905805,-3.19756 -3.260048,-5.11289 0.593138,-1.75925 3.712653,-0.84989 5.226568,-1.92451 1.648239,-1.16997 1.8341,-4.70274 3.855243,-4.68046 1.856424,0.0205 1.955554,3.26833 3.445404,4.37607 1.62204,1.20603 5.03934,0.29111 5.64271,2.22021 0.5542,1.7719 -2.50406,2.86981 -3.0972,4.62906 -0.64575,1.91533 1.28039,4.88265 -0.36785,6.05262 z" /><path id="path66-0-4" style="display:inline;fill:#ffffff;fill-opacity:1;fill-rule:evenodd;stroke-width:1.41221;stroke-dashoffset:10" d="m 115.72734,135.67115 c -0.89544,0.63561 -2.07201,-0.88406 -3.17003,-0.89617 -1.19544,-0.0132 -2.51257,1.61268 -3.47196,0.89935 -0.8812,-0.6552 0.20051,-2.24379 -0.12728,-3.29181 -0.35688,-1.14101 -2.31017,-1.89126 -1.92823,-3.02412 0.35083,-1.04055 2.19593,-0.50269 3.09136,-1.13829 0.97488,-0.69201 1.08481,-2.78154 2.28026,-2.76836 1.09802,0.0121 1.15665,1.93312 2.03785,2.58831 0.95939,0.71334 2.98062,0.17219 3.3375,1.3132 0.32779,1.04802 -1.48108,1.6974 -1.8319,2.73795 -0.38194,1.13286 0.75731,2.88794 -0.21757,3.57994 z" /><path id="path66-0" style="display:inline;fill:#ffffff;fill-opacity:1;fill-rule:evenodd;stroke-width:2.38763;stroke-dashoffset:10" d="m 110.3268,116.67869 c -1.51391,1.07462 -3.50314,-1.49469 -5.35957,-1.51515 -2.02114,-0.0223 -4.24801,2.72655 -5.870057,1.52052 -1.489848,-1.10774 0.339,-3.79358 -0.215199,-5.56547 -0.603371,-1.92911 -3.905805,-3.19756 -3.260048,-5.11289 0.593138,-1.75925 3.712653,-0.84989 5.226564,-1.92451 1.64824,-1.16997 1.8341,-4.70274 3.85525,-4.68046 1.85642,0.0205 1.95555,3.26833 3.4454,4.37607 1.62204,1.20603 5.03934,0.29111 5.64271,2.22021 0.5542,1.7719 -2.50406,2.86981 -3.0972,4.62906 -0.64575,1.91533 1.28039,4.88265 -0.36785,6.05262 z" /></g></g></svg>