<svg width="1024" height="1024" viewBox="0 0 5333.3 5333.3" xmlns="http://www.w3.org/2000/svg"><path d="M34176 15396a13513 13513 0 0 0-7147-8909c-6703-3316-14826-571-18142 6133a13484 13484 0 0 0-1388 5280 13571 13571 0 0 0 1053 5999c430 1018 984 1986 1655 2877 432 574 1347 299 1394-416a13560 13560 0 0 1 1349-5054l29-60a13280 13280 0 0 1 960-1640 13317 13317 0 0 1 2600-2838c250-204 507-400 771-585l57-40a13646 13646 0 0 1 1786-1051l61-30 87-41a13402 13402 0 0 1 2333-856c419-112 844-204 1273-275a13777 13777 0 0 1 1683-173 12487 12487 0 0 1 1083 0 12271 12271 0 0 1 902 67 13256 13256 0 0 1 1755 308 13557 13557 0 0 1 4035 1719c208 131 411 267 609 407 587 418 1374-123 1202-822" style="display:inline;fill:#ffd243;fill-opacity:1;fill-rule:nonzero;stroke:none" transform="matrix(.13333 0 0 -.13333 0 5333)"/><path d="M24880 12879a13562 13562 0 0 0-1000 36 14235 14235 0 0 0-1043 111l-238 37a14208 14208 0 0 0-2059 486l11 15c157 212 246 438 264 660 122-40 245-79 369-116l14-75a882 882 0 0 1 350-550c167-113 372-179 563-237 439-124 899-172 1355-172 126 0 252 4 376 10 438 30 873 96 1290 237a643 643 0 0 1 295 208c1525 30 3022 315 4467 852l29 11a5038 5038 0 0 1 185 70 13660 13660 0 0 1 963 419l24 12 109 53 56 28a14188 14188 0 0 1 1643 968 9919 9919 0 0 1 209 145c102 62 206 88 305 88a615 615 0 0 0 461-214l18-23c21-28 39-57 55-87-53-124-108-248-165-370a809 809 0 0 1-759-89 14549 14549 0 0 0-1918-1106 14376 14376 0 0 0-6229-1407m-7722 2643c-134 34-266 52-391 52-84 0-166-8-243-25a13970 13970 0 0 0-1350 1101 13364 13364 0 0 0-2359 2879c-177 288-344 584-499 889-11 21-22 41-31 61-443 874-778 1772-1013 2679-203 787-331 1582-384 2375-31 450-417 725-810 725h-16a12876 12876 0 0 0 294 407l18 22 18 21a573 573 0 0 0 542 180c86-16 169-51 239-101 42-29 79-63 111-102l9-10c13-17 25-33 35-50l3-5a597 597 0 0 0 84-273l12-162 18-210 13-131 13-117 5-48a13674 13674 0 0 1 790-3258l2-5c20-52 39-104 60-155l60-153 4-8a13963 13963 0 0 1 609-1302l5-11 95-174 93-168a15146 15146 0 0 1 297-495l48-76 81-126 41-62 25-37 50-75a13617 13617 0 0 1 3640-3655l-155-270c-23-42-44-84-63-127" style="fill:#ffedb4;fill-opacity:1;fill-rule:nonzero;stroke:none" transform="matrix(.13333 0 0 -.13333 0 5333)"/><path d="M34176 15395a13515 13515 0 0 0-7147-8909c-6703-3315-14826-569-18142 6133a13485 13485 0 0 0-875 9755 13467 13467 0 0 1 1354-7196 13520 13520 0 0 1 9744-7324c-74 204-103 421-78 643 119 1052 1403 1829 2869 1734 1465-94 2556-1024 2437-2076-8-77-23-153-44-226 1090 230 2169 600 3214 1117a13491 13491 0 0 1 6530 7013 763 763 0 0 0 138-664" style="fill:#ff9d33;fill-opacity:1;fill-rule:nonzero;stroke:none" transform="matrix(.13333 0 0 -.13333 0 5333)"/><path d="M11877 19983c537-649 527-1551-23-2014-549-463-1430-312-1968 336-537 649-527 1551 23 2014 549 463 1430 312 1967-336M16454 13503c-654 743-740 1613-192 1943 549 331 1523-3 2177-746 654-742 740-1612 192-1943-549-330-1523 4-2177 746" style="fill:#ff9d33;fill-opacity:1;fill-rule:nonzero;stroke:none" transform="matrix(.13333 0 0 -.13333 0 5333)"/><path d="M16502 13525c-589 627-760 1280-380 1457 379 178 1165-186 1754-813 590-627 760-1279 381-1457s-1165 187-1755 813M11218 19367c199-600-37-1205-528-1351-490-146-1049 223-1248 823s38 1205 528 1351 1049-222 1248-823M12396 12731c-98-79-187-172-264-277-543-745-281-1840 586-2447 651-455 1459-505 2050-187l-2372 2911" style="fill:#ffd243;fill-opacity:1;fill-rule:nonzero;stroke:none" transform="matrix(.13333 0 0 -.13333 0 5333)"/><path d="M12443 12674c-604-622-514-1574 44-2196 542-623 1458-908 2254-605a60 60 0 0 0 55-105 1648 1648 0 0 0-651-263c-1208-227-2511 800-2470 2054 10 495 270 982 675 1230 73 44 152-54 93-115" style="fill:#371a45;fill-opacity:1;fill-rule:nonzero;stroke:none" transform="matrix(.13333 0 0 -.13333 0 5333)"/><path d="M24394 9987c349-329 582-733 649-1184 121-817-332-1557-1121-2100-518-356-1182-607-1927-692-1882-215-3570 709-3771 2062-75 504 67 996 371 1427 514 727 1495 1231 2677 1366l3122-879" style="fill:#ffd243;fill-opacity:1;fill-rule:nonzero;stroke:none" transform="matrix(.13333 0 0 -.13333 0 5333)"/><path d="M9898 18314c408-416 1055-660 1600-433 537 222 739 845 594 1385-189 820-1156 1512-1978 1126a1158 1158 0 0 1-582-654 59 59 0 0 0-111 40 1235 1235 0 0 0 573 831c1180 682 2620-514 2536-1780-44-1021-1018-1621-1957-1240a1774 1774 0 0 0-789 631c-50 75 51 157 114 94" style="fill:#371a45;fill-opacity:1;fill-rule:nonzero;stroke:none" transform="matrix(.13333 0 0 -.13333 0 5333)"/><path d="M10267 21083a1637 1637 0 0 1-1304-1419c-232-1662 1721-3322 3242-2312 58 42 128-41 77-91a1728 1728 0 0 0-872-455c-1373-256-2698 932-2833 2277-62 548 80 1142 454 1561 299 353 764 576 1218 586 89 1 104-127 18-147" style="fill:#371a45;fill-opacity:1;fill-rule:nonzero;stroke:none" transform="matrix(.13333 0 0 -.13333 0 5333)"/><path d="M14352 10343c-347-192-829-145-1226 156-528 401-704 1101-394 1564 44 66 95 123 153 172 625 556 1368 234 1752-222 435-514 459-1218-285-1670" style="fill:#ff9d33;fill-opacity:1;fill-rule:nonzero;stroke:none" transform="matrix(.13333 0 0 -.13333 0 5333)"/><path d="M14274 10365c-347-192-829-145-1226 156-528 401-704 1101-394 1564 44 66 95 123 153 171 312 34 659-62 962-292 536-407 743-1095 505-1600" style="fill:#ffd243;fill-opacity:1;fill-rule:nonzero;stroke:none" transform="matrix(.13333 0 0 -.13333 0 5333)"/><path d="M14345 12199c-573 323-1445 196-1573-530-92-651 541-1233 1181-1227 457-9 869 310 932 781 10 70 114 66 119-4 22-274-84-556-276-757-631-649-1778-343-2188 418-497 882 139 1884 1155 1765 276-35 534-151 734-325 66-58-9-163-84-121" style="fill:#371a45;fill-opacity:1;fill-rule:nonzero;stroke:none" transform="matrix(.13333 0 0 -.13333 0 5333)"/><path d="M21848 10339c1434-93 2502-1013 2385-2055-117-1041-1374-1810-2808-1716-1434 93-2501 1013-2385 2055 117 1041 1374 1810 2808 1716" style="fill:#ff9d33;fill-opacity:1;fill-rule:nonzero;stroke:none" transform="matrix(.13333 0 0 -.13333 0 5333)"/><path d="M21664 9345c1205-169 2054-919 1895-1674-160-755-1266-1230-2472-1061s-2055 919-1895 1674c159 756 1266 1231 2471 1061" style="fill:#ffd243;fill-opacity:1;fill-rule:nonzero;stroke:none" transform="matrix(.13333 0 0 -.13333 0 5333)"/><path d="M16348 12637c-1025 298-1642 1750-1099 2685a911 911 0 0 0 341 326 60 60 0 0 0 73-94 1151 1151 0 0 1-256-719c-18-521 165-1047 455-1479 149-219 331-415 551-587 66-48 13-156-65-133" style="fill:#371a45;fill-opacity:1;fill-rule:nonzero;stroke:none" transform="matrix(.13333 0 0 -.13333 0 5333)"/><path d="M28053 12290c260 263 599 507 997 702 1193 585 2471 507 2852-174 382-680-276-1706-1470-2291s-2471-507-2853 174l474 1589" style="fill:#ffd243;fill-opacity:1;fill-rule:nonzero;stroke:none" transform="matrix(.13333 0 0 -.13333 0 5333)"/><path d="M32059 12613c92-791-513-1449-1084-1909-792-614-1916-1009-2892-590-240 112-464 304-555 558a60 60 0 0 0 104 58c301-350 780-415 1220-404 516 16 1027 157 1510 337 363 180 694 437 980 724 315 327 594 742 570 1211-4 92 132 108 147 15" style="fill:#371a45;fill-opacity:1;fill-rule:nonzero;stroke:none" transform="matrix(.13333 0 0 -.13333 0 5333)"/><path d="M30474 11225a2625 2625 0 0 0-1057-395c-406-53-773 14-989 213-402 368-138 1045 589 1514 695 447 1561 541 1988 229 21-15 40-31 59-48 402-367 138-1045-590-1513" style="fill:#ff9d33;fill-opacity:1;fill-rule:nonzero;stroke:none" transform="matrix(.13333 0 0 -.13333 0 5333)"/><path d="M29069 12283c685 122 1268-95 1302-484s-494-803-1179-925c-685-121-1268 95-1302 485-34 389 494 803 1179 924" style="fill:#ffd243;fill-opacity:1;fill-rule:nonzero;stroke:none" transform="matrix(.13333 0 0 -.13333 0 5333)"/><path d="M28530 12236c379 455 947 744 1534 823 320 33 652 11 937-179 325-213 414-638 267-981-340-813-1427-1319-2277-1228-262 33-545 132-707 355-28 52-109 136-37 183 29 16 65 5 81-23a615 615 0 0 1 302-210c694-213 1640 221 2085 761 670 866-292 1097-1005 915-390-93-760-266-1075-520-68-56-160 35-105 104M19083 13495a859 859 0 0 0-518-935c-350-149-754-104-1098 12-857 298-1697 1149-1709 2097 4 184 50 373 156 526 44 51 135 205 207 131 19-21 19-52 3-75-440-702 359-1647 932-2027 440-295 1166-601 1633-240 142 113 223 300 246 509 10 85 136 86 148 2" style="fill:#371a45;fill-opacity:1;fill-rule:nonzero;stroke:none" transform="matrix(.13333 0 0 -.13333 0 5333)"/><path d="M8162 22223v-1 1m5171-1258v-2 2m-334-164 1-1-1 1m-5333-2329v-4 4m26351-2893-2-12 2 12m-25921-318v-1 1m1344-3283 17-30 55-95 52-87 26-43 58-96 19-31a11624 11624 0 0 1 136-215l22-35a13335 13335 0 0 1 17630-4428c84 47 169 94 252 142l137 80 104 62 21 13a11167 11167 0 0 1 253 157l123 80a13205 13205 0 0 1 244 164l24 16 97 67 45 32 91 65 118 86c190 140 378 286 557 434l85 70c45 37 91 76 136 116l73 62c157 138 312 279 460 422l81 78 30 30 103 102a12743 12743 0 0 1 488 517 13191 13191 0 0 1 1872 2701 13434 13434 0 0 1 1147 3030l12 59 3 23 1 19 2 39-1 41c-7 114-47 222-117 313l-18 23a591 591 0 0 1-804 101 9919 9919 0 0 0-278-192 11040 11040 0 0 0-305-200 13326 13326 0 0 0-1231-696l-55-27-110-54-24-12a7495 7495 0 0 0-218-102 8183 8183 0 0 0-318-142 9995 9995 0 0 0-427-175 12130 12130 0 0 0-185-70l-28-11a13550 13550 0 0 0-5972-799 13782 13782 0 0 0-8721 4175 13617 13617 0 0 0-1466 1817l-50 75-25 37-40 62-82 126-48 76-134 218c-52 87-106 178-163 277l-93 168-95 174-5 11a13990 13990 0 0 0-609 1302l-4 8-60 153c-21 51-40 103-60 155l-2 5-59 161a13674 13674 0 0 0-731 3097l-5 48-13 117-13 131-18 210-11 162a597 597 0 0 1-85 273l-3 6c-10 16-22 32-35 49l-9 10c-32 39-69 73-111 102-70 50-153 85-239 101a573 573 0 0 1-561-201l-17-22a12926 12926 0 0 1-821-1228 13432 13432 0 0 1-884-1784l-64-162a13043 13043 0 0 1-368-1072l-10-34-23-78-21-77-18-62-18-68-17-63-8-29-1-6-21-78-2-8-12-49-2-10c-7-23-12-47-18-70l-18-75-5-24-5-19-4-17-34-150v-1l-4-19-23-102-2-9-12-60a7994 7994 0 0 1-37-188l-8-40-12-67-14-75-1-9-6-30-3-19-2-12-17-101-4-26-20-131-1-6-7-41-3-19-13-95-2-12-5-35-11-86-6-46-10-83-5-46-16-139-14-143-3-29-8-104-9-105-9-123v-7l-3-38v-6l-8-138-3-51v-17l-2-33v-10l-3-50-3-84-1-37-4-148v-46l-2-134v-91l1-127v-4l1-17-1-9v-24a9489 9489 0 0 1 3-138v-8c1-49 2-98 5-147 0-30 1-56 3-83l6-135 10-165 1-23 8-113 3-38a10775 10775 0 0 1 75-708l19-141 2-15a5215 5215 0 0 1 22-148l18-111 5-31 25-143 1-5 1-7 2-10 21-113 24-126 18-89 2-6 3-18 2-9 6-28 2-7 19-93a10096 10096 0 0 1 99-414l8-4 15-88 36-135 10-38 16-58 29-98 18-65 20-66 9-29 15-51 10-31 19-62 15-47 26-80 5-17 8-23 5-16 18-54 2-6 12-35 10-30 10-28 10-28 2-8a2257 2257 0 0 1 28-79l18-50 6-18 4-11 25-68 21-57 40-106 43-112a14166 14166 0 0 1 107-262l7-18 61-144 39-89 51-114 33-73 29-62 4-9 15-33 37-76 3-7c3-7 5-13 9-18l5-10 31-66 4-9 30-59c11-25 22-45 32-66l15-30 25-50 5-8 53-104 3-6 48-80-2-7a18164 18164 0 0 1 54-101l15-27a10901 10901 0 0 1 59-107l6-11 74-132 3-4m11608-7074c-1368 0-2740 204-4067 614a13752 13752 0 0 0-7468 5626l-23 36-59 93-81 129-19 31-60 99-26 43a10166 10166 0 0 0-110 188l-16 27-5 8a8187 8187 0 0 0-84 149l-6 10-53 98-14 26a5785 5785 0 0 0-91 171l-48 83 2 5-24 47-4 8-27 53-14 28-35 70-34 68-5 11a5776 5776 0 0 0-81 170l-20 45-32 68-33 72-52 117-75 169 1 2a10077 10077 0 0 0-146 355l-45 117-40 108-21 57a2598 2598 0 0 0-41 111l-18 53a2463 2463 0 0 0-47 134 2070 2070 0 0 0-48 143l-10 29-4 13-28 85-10 34-5 17-19 61-10 31a4326 4326 0 0 0-24 81l-22 73-19 64-26 93h-1l-29 108-18 66-1 1-41 163a11554 11554 0 0 0-180 813 6309 6309 0 0 0-51 288l-5 30a8239 8239 0 0 0-45 287l-19 141a11830 11830 0 0 0-76 729l-3 37-9 113-2 32-11 197v1a12644 12644 0 0 0-14 394l-2 97v37a177 177 0 0 0 0 21 6049 6049 0 0 0-1 197l1 25a10913 10913 0 0 0 2 187l4 153v7l1 17v9a3383 3383 0 0 0 5 141v6l2 41 1 13 3 55a7992 7992 0 0 0 20 319l9 109 9 100c0 10 2 25 4 39l11 119 3 24 16 146 5 45 10 85 6 48a7232 7232 0 0 0 18 128l1 8 14 99 3 19 7 49 20 131 5 25 18 109v2l3 16 2 12 7 38a2616 2616 0 0 0 27 151l5 26 3 17 1 5 37 183 13 62 2 10 21 99 5 23a9758 9758 0 0 0 53 229l16 66a2318 2318 0 0 0 33 135l1 5 22 83 12 44 15 56 20 74 11 39 5 20 22 75 1 14 8 17 14 48 11 39a13479 13479 0 0 0 519 1448l68 158a13803 13803 0 0 0 1636 2793l34 38a937 937 0 0 0 885 293 1008 1008 0 0 0 535-295l3-1 28-34a837 837 0 0 0 108-160 961 961 0 0 0 108-390l12-161 17-201 13-131 12-111 5-48a13301 13301 0 0 1 768-3168l3-6 58-150 59-150 3-7c127-314 268-625 417-926l83-164 90-172 6-11 94-174 92-164a14055 14055 0 0 1 413-677l40-61 24-37 49-72c423-628 902-1223 1426-1768a13410 13410 0 0 1 8487-4062c1987-178 3941 84 5808 777l29 11a5632 5632 0 0 1 178 68 13267 13267 0 0 1 575 240l7 3 25 11a9106 9106 0 0 1 198 91l135 64 24 12 104 51 39 19 10 5 5 3a14773 14773 0 0 1 531 280 12998 12998 0 0 1 1235 778 958 958 0 0 0 1305-168l20-25 7-10a929 929 0 0 0 192-510v-9l1-22v-14l1-30-1-17a1296 1296 0 0 0-9-109c-5-32-11-65-19-97a18977 18977 0 0 0-121-459 13522 13522 0 0 0-455-1341 13805 13805 0 0 0-2625-4197 13065 13065 0 0 0-542-560l-82-79a13792 13792 0 0 0-689-619l-85-70a13314 13314 0 0 0-695-535l-93-67-47-33-99-68-24-16a10421 10421 0 0 0-251-169l-127-82a10576 10576 0 0 0-261-162l-21-13a15129 15129 0 0 0-778-437 13994 13994 0 0 0-998-469 13659 13659 0 0 0-5316-1074" style="fill:#371a45;fill-opacity:1;fill-rule:nonzero;stroke:none" transform="matrix(.13333 0 0 -.13333 0 5333)"/><path d="M25043 8803c238-950-433-1845-1198-2336-1185-763-2753-899-4058-366-1121 448-2025 1576-1548 2815 86 216 208 413 356 584-219-383-346-826-290-1262 97-872 840-1493 1623-1787 806-307 1703-343 2545-168 1213 253 2632 1126 2570 2520" style="fill:#371a45;fill-opacity:1;fill-rule:nonzero;stroke:none" transform="matrix(.13333 0 0 -.13333 0 5333)"/><path d="M19480 7211c-655 538-774 1427-296 2126 443 651 1195 1023 1953 1157 1005 170 2167-50 2865-847 574-659 528-1579-59-2211a2479 2479 0 0 0-598-481 3236 3236 0 0 0-1430-418c-75-3-86 105-14 118 887 159 1855 645 2124 1555 249 937-615 1648-1458 1843-1080 266-2411 7-3120-900a1341 1341 0 0 1-78-1559c60-99 133-190 213-276 63-68-32-166-102-107M26326 22822l-16 1c-61 9-103 65-94 126 150 1020-36 1944-512 2537a111 111 0 1 0 173 139c515-640 719-1628 559-2708-8-56-56-95-110-95" style="fill:#371a45;fill-opacity:1;fill-rule:nonzero;stroke:none" transform="matrix(.13333 0 0 -.13333 0 5333)"/><path d="M29753 24550c-92-79-174-169-253-261-429-490-832-1033-1389-1153a76192 76192 0 0 0-4108-402l-765 1498-733 1435c1933-186 3833-159 5699 73 118 14 230 58 327 128l813 579a238 238 0 0 0 301-21c59-57 102-132 131-223 79-246 49-604-79-1015l-2-8c98-68 162-166 183-269 27-126-10-261-125-361" style="fill:#fff;fill-opacity:1;fill-rule:nonzero;stroke:none" transform="matrix(.13333 0 0 -.13333 0 5333)"/><path d="m22728 25516 1351-2646c1531 114 2844 243 4010 394 444 98 791 503 1158 931l155 180c80 92 168 189 266 274 78 67 91 144 88 196-4 87-55 173-135 229-47 32-67 91-50 145 163 520 157 946-17 1114-36 35-92 38-135 8l-813-579a848 848 0 0 0-386-151 26224 26224 0 0 0-5492-95m1275-2912c-49 0-94 27-116 71l-1498 2933a130 130 0 0 0 128 188c1902-182 3810-158 5671 73 96 11 188 48 268 104l812 579a366 366 0 0 0 467-32c241-233 279-702 109-1295a556 556 0 0 0 172-366c8-156-55-301-178-407-81-70-155-150-240-248l-154-178c-380-444-773-903-1305-1018l-11-1a75618 75618 0 0 0-4125-403" style="fill:#371a45;fill-opacity:1;fill-rule:nonzero;stroke:none" transform="matrix(.13333 0 0 -.13333 0 5333)"/><path d="m29796 25149-688-421c-45-28-94 34-55 71l584 556c143 126 317-100 159-206" style="fill:#371a45;fill-opacity:1;fill-rule:nonzero;stroke:none" transform="matrix(.13333 0 0 -.13333 0 5333)"/><path d="M24564 22907a5298 5298 0 0 1-651 1617c327-208 694-350 1057-490 194-75 391-151 598-179 76-10 153-14 230-14 92 0 184 5 275 12 1004 69 2000 241 2968 512 206 58 416 123 584 255 33 26 63 54 92 83-12-18-28-37-49-54-98-85-186-182-266-274l-155-180c-367-428-714-833-1158-931a71614 71614 0 0 0-3525-357" style="fill:#cdc6d0;fill-opacity:1;fill-rule:nonzero;stroke:none" transform="matrix(.13333 0 0 -.13333 0 5333)"/><path d="m24589 22792-25 115c1326 105 2484 222 3525 357 444 98 791 503 1158 931l155 180c80 92 168 189 266 274 21 17 37 36 49 54 61 63 114 134 161 208 27-126-10-261-125-361-91-79-173-169-253-261-429-490-832-1033-1388-1153a70764 70764 0 0 0-3265-337 583 583 0 0 1-73 2l-185-9" style="fill:#371a45;fill-opacity:1;fill-rule:nonzero;stroke:none" transform="matrix(.13333 0 0 -.13333 0 5333)"/><path d="M29355 25086c100 150 178 315 225 489 63 228 72 472 20 703 118-181 119-533 1-958l-246-234" style="fill:#cdc6d0;fill-opacity:1;fill-rule:nonzero;stroke:none" transform="matrix(.13333 0 0 -.13333 0 5333)"/><path d="M29601 25320c118 425 117 777-1 958-17 74-41 148-72 218 279-191 384-565 343-901-9-78-26-157-57-230l-3-6c-23 21-52 33-84 33-29 0-60-11-90-37l-36-35" style="fill:#371a45;fill-opacity:1;fill-rule:nonzero;stroke:none" transform="matrix(.13333 0 0 -.13333 0 5333)"/><path d="M29100 24777c95 94 181 198 255 309l246 234 36 35c30 26 61 37 90 37 32 0 61-12 84-33-100-221-324-357-536-478l-175-104" style="fill:#371a45;fill-opacity:1;fill-rule:nonzero;stroke:none" transform="matrix(.13333 0 0 -.13333 0 5333)"/><path d="M20559 13819c-31-58-68-118-112-177a492 492 0 0 0-362-198c-1425-102-3111 492-2869 1819 20 113 61 222 118 321l702 1226c55 95 91 199 108 307 91 570 150 1194 180 1868l1653 369 989-1556 327-514c-228-938-493-1812-965-2334 300-141 505-614 231-1131" style="fill:#fff;fill-opacity:1;fill-rule:nonzero;stroke:none" transform="matrix(.13333 0 0 -.13333 0 5333)"/><path d="M18449 18880c-32-646-91-1245-176-1783-20-125-61-243-124-352l-702-1226a1063 1063 0 0 1 157-1223c454-506 1447-796 2472-722 107 7 204 60 266 145 186 251 255 521 194 761a523 523 0 0 1-263 352 130 130 0 0 0-41 205c449 498 710 1359 921 2224l-1237 1946-1467-327m1333-5577c-858 0-1853 242-2371 819a1329 1329 0 0 0-190 1527l703 1225c46 82 77 170 92 264 88 555 148 1179 178 1853 3 59 44 108 102 121l1653 369c53 11 109-11 138-58l1315-2069c19-30 25-66 17-101-207-854-460-1715-897-2274a830 830 0 0 0 266-436c80-316-4-664-237-979a622 622 0 0 0-456-250c-101-7-206-11-313-11" style="fill:#371a45;fill-opacity:1;fill-rule:nonzero;stroke:none" transform="matrix(.13333 0 0 -.13333 0 5333)"/><path d="M20799 15850c-1100 0-2028 374-2760 1112a130 130 0 0 0 185 183c705-711 1607-1058 2683-1034a130 130 0 0 0 6-260l-114-1M20352 14796c-433-113-910-43-1289 183-57 32-14 120 46 96 373-153 789-160 1156-6 193 68 284-219 87-273M19453 14886" style="fill:#371a45;fill-opacity:1;fill-rule:nonzero;stroke:none" transform="matrix(.13333 0 0 -.13333 0 5333)"/><path d="M19760 13562c-908 0-1749 281-2156 734a1063 1063 0 0 0-157 1223l702 1226c14 24 27 49 39 75 315-287 663-511 1043-670l-211-618c-28-82-56-167-46-253 10-81 50-146 107-201-44-7-65-72-18-99 32-19 65-37 98-54a544 544 0 0 1-324-166 554 554 0 0 1-78-623c106-195 320-306 532-369 177-53 362-79 547-79 180 0 359 24 533 71l-29-40a363 363 0 0 0-266-145c-106-8-211-12-316-12m-444 2835a3401 3401 0 0 0-1043 700c66 419 117 875 151 1361 262 44 521 125 781 241 212-386 591-666 1049-854a759 759 0 0 1-482-279c-100-130-154-288-207-443l-249-726" style="fill:#cdc6d0;fill-opacity:1;fill-rule:nonzero;stroke:none" transform="matrix(.13333 0 0 -.13333 0 5333)"/><path d="M19768 13433c-1346 0-2776 600-2552 1830 20 113 61 222 118 321l702 1226c20 33 37 68 52 104l100-95c-12-25-25-50-39-74l-702-1226a1063 1063 0 0 1 157-1223c407-453 1248-734 2156-734 105 0 210 4 316 12 107 7 204 60 266 145l29 40c64 17 126 37 188 60-31-59-68-118-112-177a492 492 0 0 0-362-198c-104-8-210-11-317-11m-1495 3664-49 48c-20 20-44 32-70 36 61 394 107 814 138 1257 44 6 88 12 132 20-34-486-85-942-151-1361" style="fill:#371a45;fill-opacity:1;fill-rule:nonzero;stroke:none" transform="matrix(.13333 0 0 -.13333 0 5333)"/><path d="M19232 16150a3633 3633 0 0 0-1144 764 904 904 0 0 1 66 267c26-4 50-16 70-36l49-48c311-303 659-536 1043-700l-84-248M19376 14913a537 537 0 0 1-215 12c-33 17-66 35-98 54-47 27-26 92 18 99 78-73 187-125 295-165" style="fill:#371a45;fill-opacity:1;fill-rule:nonzero;stroke:none" transform="matrix(.13333 0 0 -.13333 0 5333)"/><path d="m20399 25171-240-1674-644-4493c-656-380-1394-583-2323-375-561 145-953 433-1198 849a1427 1427 0 0 0-190 727v11c14 1597 173 3159 469 4688 21 108 90 201 187 252 546 291 1281 417 2137 434l1802-419" style="fill:#fff;fill-opacity:1;fill-rule:nonzero;stroke:none" transform="matrix(.13333 0 0 -.13333 0 5333)"/><path d="M18584 25460c-897-20-1572-157-2063-418-63-34-107-93-121-163a25812 25812 0 0 1-467-4664c-2-243 58-475 173-671 234-397 599-655 1118-789 767-172 1459-67 2171 330l859 5987-1670 388m-665-7045c-246 0-497 30-756 88-585 150-1014 456-1281 909a1559 1559 0 0 0-208 806c14 1581 172 3166 471 4711a492 492 0 0 0 253 342c532 283 1251 430 2197 449 10 1 21 0 32-3l1802-419c66-16 109-79 99-145l-885-6168c-5-39-29-74-63-94-552-319-1093-476-1661-476" style="fill:#371a45;fill-opacity:1;fill-rule:nonzero;stroke:none" transform="matrix(.13333 0 0 -.13333 0 5333)"/><path d="M17037 18811c402-104 497 910 557 1190 29 179 56 360 89 540a45 45 0 0 0 90-7c1-370-6-736-57-1105-47-381-222-995-736-872-169 41-113 288 57 254" style="fill:#371a45;fill-opacity:1;fill-rule:nonzero;stroke:none" transform="matrix(.13333 0 0 -.13333 0 5333)"/><path d="M17915 18676c-151 0-304 12-459 35 160 188 232 494 260 719 51 368 58 734 57 1104a45 45 0 0 1-45 45c28 275 59 550 96 824a6056 6056 0 0 1 1366 504 899 899 0 0 1-171-427l-872-27c-122-3-226-89-253-208-84-367-179-1020 119-1279a736 736 0 0 1 481-168c168 0 337 50 469 153 53 40 98 96 136 162-21-183-45-366-74-549-15-231 13-439 76-627a2862 2862 0 0 0-1186-261" style="fill:#cdc6d0;fill-opacity:1;fill-rule:nonzero;stroke:none" transform="matrix(.13333 0 0 -.13333 0 5333)"/><path d="M17917 18546c-188 0-383 18-588 55 48 29 90 66 127 110a2862 2862 0 0 1 1645 226c14-42 29-82 47-122a2976 2976 0 0 0-1231-269" style="fill:#371a45;fill-opacity:1;fill-rule:nonzero;stroke:none" transform="matrix(.13333 0 0 -.13333 0 5333)"/><path d="M17093 18803c-16 0-33 2-51 7-423 144-731 385-936 734-80 136-133 290-157 453 116-228 260-443 465-594a929 929 0 0 1 540-182c143 0 283 39 398 127 62 47 112 103 154 166-71-341-189-711-413-711" style="fill:#cdc6d0;fill-opacity:1;fill-rule:nonzero;stroke:none" transform="matrix(.13333 0 0 -.13333 0 5333)"/><path d="M16886 18729a1755 1755 0 0 0-892 749 1427 1427 0 0 0-190 727l40 15c33-75 67-149 105-223 24-163 77-317 157-453 205-349 513-590 936-734l-5 1-31 3c-61 0-103-38-120-85" style="fill:#371a45;fill-opacity:1;fill-rule:nonzero;stroke:none" transform="matrix(.13333 0 0 -.13333 0 5333)"/><path d="m17329 18601-137 28c-108 28-210 62-306 100 17 47 59 85 120 85l31-3 5-1c18-5 35-7 51-7 224 0 341 370 412 711 141 215 173 507 196 772l27 293 7-1c22-4 38-23 38-44 1-370-6-736-57-1105-28-224-100-530-260-718-37-44-80-81-127-110M17600 24020c-31 0-62 11-87 33a6120 6120 0 0 1-1239 878 130 130 0 0 0 120 230c433-226 868-533 1293-914a130 130 0 0 0-87-227" style="fill:#371a45;fill-opacity:1;fill-rule:nonzero;stroke:none" transform="matrix(.13333 0 0 -.13333 0 5333)"/><path d="m19046 21388-896-27c-80-3-148-59-166-137-65-285-181-953 90-1187 224-195 603-190 832-13 257 198 311 856 321 1182 4 102-79 185-181 182" style="fill:#fff;fill-opacity:1;fill-rule:nonzero;stroke:none" transform="matrix(.13333 0 0 -.13333 0 5333)"/><path d="M18494 19983c-133 0-265 41-360 124-74 64-119 186-133 351 19-46 47-73 86-73l10 1c46 5 110 127 110 127s162-273 426-273c104 0 224 42 357 160 15 13 30 28 44 44-48-169-110-289-185-346a585 585 0 0 0-355-115" style="fill:#cdc6d0;fill-opacity:1;fill-rule:nonzero;stroke:none" transform="matrix(.13333 0 0 -.13333 0 5333)"/><path d="m19049 21295-896-27c-38-1-70-28-78-64-125-547-102-957 59-1097 186-161 513-165 715-9 160 123 267 539 285 1111a83 83 0 0 1-85 86m-555-1497c-177 0-352 56-481 168-298 259-203 912-119 1279a268 268 0 0 0 253 208l896 27a270 270 0 0 0 277-277c-15-457-89-1045-357-1252a770 770 0 0 0-469-153" style="fill:#371a45;fill-opacity:1;fill-rule:nonzero;stroke:none" transform="matrix(.13333 0 0 -.13333 0 5333)"/><path d="M18475 19826c-280 198-337 576-303 892 11 106 22 207 60 310a22 22 0 0 0 42-14c-26-93-31-198-32-299-4-278 57-600 305-759 93-48 18-184-72-130" style="fill:#371a45;fill-opacity:1;fill-rule:nonzero;stroke:none" transform="matrix(.13333 0 0 -.13333 0 5333)"/><path d="M25466 13963c-5-40-12-80-23-123a567 567 0 0 0-369-400c-946-320-2450-332-3329 81a746 746 0 0 0-416 534c-196 1014-197 2538-783 3725-36 73-98 131-174 161-219 88-428 198-623 337a1428 1428 0 0 0-577 1384c87 555 139 1134 162 1735v3c16 421 17 853 5 1294-21 811-86 1653-183 2517l1006 845 2724-574 856-784c993-1566 1055-3840 653-5641-60-266-129-521-207-763l-4-12c403-1001 526-2099 479-3257 553-234 873-557 803-1062" style="fill:#fff;fill-opacity:1;fill-rule:nonzero;stroke:none" transform="matrix(.13333 0 0 -.13333 0 5333)"/><path d="M23781 24723c1242-1762 1149-4496 527-6481l-3 89a6786 6786 0 0 0 420-1633c75-558 91-1120 69-1678l-80 126c369-155 780-416 869-842 85-382-53-847-451-983a5073 5073 0 0 0-1290-237c-578-30-1170 3-1731 162-191 58-396 124-563 237a882 882 0 0 0-350 550c-35 190-64 380-88 568-97 754-165 1504-356 2223-83 309-191 614-330 902-29 60-91 90-151 111-759 306-1305 860-1247 1727 229 1490 223 3005 105 4507-30 375-67 750-108 1125-5 46 14 89 47 117l1007 844c32 27 74 36 112 28l2724-576c168-42 114-285-53-254l-2725 572 112 28-1006-846 47 117c199-1788 295-3616 42-5410l-20-142c-69-383 38-791 295-1083 222-253 536-408 843-537a488 488 0 0 0 244-272c48-103 104-229 143-337 412-1080 428-2248 623-3362a617 617 0 0 1 346-444c120-49 254-107 380-139a5299 5299 0 0 1 2730 28c259 57 407 210 425 479 68 456-346 742-728 898-51 22-81 73-79 125 22 547 7 1094-65 1633a6532 6532 0 0 1-404 1571c-11 29-12 60-3 88 486 1549 597 3247 222 4831a6523 6523 0 0 1-579 1520 46 46 0 0 0 78 50" style="fill:#371a45;fill-opacity:1;fill-rule:nonzero;stroke:none" transform="matrix(.13333 0 0 -.13333 0 5333)"/><path d="M24772 14944c-198-355-622-512-1004-499a47 47 0 0 0-8 92c324 52 647 218 755 534 82 195 363 56 257-127M22592 15766c-566 0-1119 89-1609 270a143 143 0 1 0 99 269c1041-385 2381-329 3499 144a143 143 0 0 0 112-264 5450 5450 0 0 0-2101-419M24189 17891c-167 427-292 881-597 1233a55 55 0 0 0 77 78c183-160 326-364 443-574s214-427 317-635a130 130 0 1 0-240-102" style="fill:#371a45;fill-opacity:1;fill-rule:nonzero;stroke:none" transform="matrix(.13333 0 0 -.13333 0 5333)"/><path d="M21051 21720c-511 0-1166 61-1569 333v17c237 141 462 299 672 476a43 43 0 0 1-37 75l-191 632-5 14c77 32 158 52 237 52 76 0 150-18 215-59 283-176 221-617 420-884 131-176 359-252 577-278a1824 1824 0 0 1 284-12c-11-56-16-115-14-175l3-165c-136-12-348-26-592-26" style="fill:#cdc6d0;fill-opacity:1;fill-rule:nonzero;stroke:none" transform="matrix(.13333 0 0 -.13333 0 5333)"/><path d="m19482 22054-13 8 13 8v-16" style="fill:#371a45;fill-opacity:1;fill-rule:nonzero;stroke:none" transform="matrix(.13333 0 0 -.13333 0 5333)"/><path d="M23478 13335c-438 0-875 54-1294 165-126 32-260 90-380 139a617 617 0 0 0-346 444c-108 618-161 1253-257 1880 407-124 851-189 1304-197 44-277 88-553 201-808a891 891 0 0 1 246-344 773 773 0 0 1 498-154c89 0 181 9 272 25 3-23 22-40 46-40l18-1a459 459 0 0 1-193-205c-93-213 49-472 256-578 119-61 252-83 387-83a2520 2520 0 0 1 1081 294c-53-186-191-297-403-344a5451 5451 0 0 0-1436-193" style="fill:#cdc6d0;fill-opacity:1;fill-rule:nonzero;stroke:none" transform="matrix(.13333 0 0 -.13333 0 5333)"/><path d="M23470 13205c-633 0-1265 100-1725 316a746 746 0 0 0-416 534c-106 547-155 1243-270 1954 47-16 94-32 142-46 96-627 149-1262 257-1880a617 617 0 0 1 346-444c120-49 254-107 380-139 419-111 856-165 1294-165 487 0 974 66 1436 193 212 46 350 158 402 344 52 28 102 59 150 91-5-40-12-81-23-123a567 567 0 0 0-369-400c-451-153-1028-235-1604-235" style="fill:#371a45;fill-opacity:1;fill-rule:nonzero;stroke:none" transform="matrix(.13333 0 0 -.13333 0 5333)"/><path d="M22457 16053c-459 12-906 88-1310 228-72 395-168 785-312 1164-39 108-95 234-143 337a488 488 0 0 1-245 272c-307 129-620 284-843 537a1307 1307 0 0 0-294 1083l20 142c42 298 75 597 98 897 238-101 732-266 1430-266 246 0 517 21 812 72l4-169c4-214 90-415 235-550a595 595 0 0 1 434-165l86 5a1268 1268 0 0 1-563-759c-120-451-29-933 117-1376 146-444 346-871 448-1327 10-41 18-83 26-125" style="fill:#cdc6d0;fill-opacity:1;fill-rule:nonzero;stroke:none" transform="matrix(.13333 0 0 -.13333 0 5333)"/><path d="m21147 16281-65 24a144 144 0 0 1-75 6c-97 508-236 1013-461 1469-36 73-98 131-174 161-219 88-428 198-623 337a1428 1428 0 0 0-577 1384c57 360 99 731 127 1112 27-14 70-35 130-61-24-300-57-599-99-897l-20-142c-69-382 38-791 295-1083 222-253 536-408 843-537a488 488 0 0 0 244-272c48-103 104-229 143-337 145-379 240-769 312-1164M23786 14444l-18 1c-24 0-43 17-46 40 120 20 239 50 352 82-97-33-200-70-288-123" style="fill:#371a45;fill-opacity:1;fill-rule:nonzero;stroke:none" transform="matrix(.13333 0 0 -.13333 0 5333)"/><path d="M22505 15766a4765 4765 0 0 0-1445 243c-17 100-34 201-53 302a146 146 0 0 0 75-6l65-24c404-140 851-216 1310-228 18-95 33-191 48-287" style="fill:#371a45;fill-opacity:1;fill-rule:nonzero;stroke:none" transform="matrix(.13333 0 0 -.13333 0 5333)"/><path d="m24138 18581-26 47c-97 174-211 343-352 487a907 907 0 0 1 402-110c29 0 58 2 87 7-34-145-71-288-111-431" style="fill:#cdc6d0;fill-opacity:1;fill-rule:nonzero;stroke:none" transform="matrix(.13333 0 0 -.13333 0 5333)"/><path d="m24225 18413-87 168c40 143 77 286 111 431a510 510 0 0 1 146 45c-50-223-107-438-170-644" style="fill:#371a45;fill-opacity:1;fill-rule:nonzero;stroke:none" transform="matrix(.13333 0 0 -.13333 0 5333)"/><path d="m24188 18294-201 413c-64 132-131 267-239 365l-59 82c23-14 47-27 71-39a2302 2302 0 0 0 378-534l87-168-37-119" style="fill:#371a45;fill-opacity:1;fill-rule:nonzero;stroke:none" transform="matrix(.13333 0 0 -.13333 0 5333)"/><path d="m24841 19866-2503-119c-297-14-545 258-553 606l-34 1560c-7 304 174 569 418 639 34 11 70 16 107 18l2503 119c296 14 545-258 552-606l28-1236 7-324c7-348-229-643-525-657" style="fill:#fff;fill-opacity:1;fill-rule:nonzero;stroke:none" transform="matrix(.13333 0 0 -.13333 0 5333)"/><path d="M22900 19885c-76 12-150 49-211 106a570 570 0 0 0-171 405l-32 1470c38-181 83-342 142-485-14-63-21-131-20-202 3-199 75-382 191-492a356 356 0 0 1 259-104l195 8c51 2 97 26 130 64 193-63 425-94 704-94l114 2c487 14 820 102 1048 220l5-263c7-288-181-532-419-543l-1935-92" style="fill:#cdc6d0;fill-opacity:1;fill-rule:nonzero;stroke:none" transform="matrix(.13333 0 0 -.13333 0 5333)"/><path d="M24800 22578h-16l-2502-119c-238-11-426-255-419-543l34-1561c3-155 63-297 164-392 78-72 174-110 272-105l2502 119c238 11 426 255 419 543l-34 1561c-3 155-63 297-165 392a374 374 0 0 1-255 105m-2484-2943c-148 0-292 58-407 165a775 775 0 0 0-235 550l-34 1561c-9 408 274 754 631 771l2503 119c158 7 312-51 433-165a775 775 0 0 0 236-550l34-1561c9-408-274-754-631-771l-2503-119h-27" style="fill:#371a45;fill-opacity:1;fill-rule:nonzero;stroke:none" transform="matrix(.13333 0 0 -.13333 0 5333)"/><path d="M24941 19882c-33-9-66-15-100-16l-2503-119c-217-10-409 133-499 348-33 78-52 165-54 258l-15 693-5 229-14 638c-8 348 229 643 525 657l541 26c-248-67-432-334-426-641l18-843 16-718c8-347 257-620 553-606l1963 94" style="fill:#fff;fill-opacity:1;fill-rule:nonzero;stroke:none" transform="matrix(.13333 0 0 -.13333 0 5333)"/><path d="M22315 19839c-96 0-190 39-266 110a570 570 0 0 0-171 405v1l-4 203c26 6 49 20 65 42 7 8 101 135 165 311a256 256 0 0 1 38-4c61 0 121 36 177 93l14-608c4-209 88-405 229-537l5-4-234-11-18-1" style="fill:#cdc6d0;fill-opacity:1;fill-rule:nonzero;stroke:none" transform="matrix(.13333 0 0 -.13333 0 5333)"/><path d="m22485 22487-204-9c-248-12-444-265-437-563l34-1560v-1c3-159 66-307 171-405 81-75 182-115 284-110l234 12-5 4a756 756 0 0 0-229 537l-34 1561c-5 204 66 396 186 534m-169-2834c-144 0-282 57-394 160a757 757 0 0 0-230 538l-34 1560c-8 398 267 735 614 752l541 26a93 93 0 0 0 29-182c-213-58-363-289-358-550l34-1561c4-159 66-307 171-405 81-76 183-115 284-110l1964 94a93 93 0 0 0 29-182c-40-12-81-18-122-20l-2502-119-26-1" style="fill:#371a45;fill-opacity:1;fill-rule:nonzero;stroke:none" transform="matrix(.13333 0 0 -.13333 0 5333)"/><path d="M23396 21209c1-58-61-527-61-527l-281-11c-193-8-354 220-358 509-5 290 147 530 341 538l280 12s77-427 78-521" style="fill:#22a7f0;fill-opacity:1;fill-rule:nonzero;stroke:none" transform="matrix(.13333 0 0 -.13333 0 5333)"/><path d="M23044 20758c-54 0-98 31-125 57a523 523 0 0 0-136 367c-4 237 114 443 257 449l85 3a556 556 0 0 1-129-253c-8-35-14-71-17-109v-1c-2-26-3-52-3-79v-2c1-37 4-73 9-107v1c22-136 78-250 155-322l-89-3-7-1" style="fill:#2784c5;fill-opacity:1;fill-rule:nonzero;stroke:none" transform="matrix(.13333 0 0 -.13333 0 5333)"/><path d="m23236 21639-196-8c-143-6-261-212-257-449 3-152 54-290 136-367 28-27 74-59 132-56l195 7c2 1 13 9 15 27 35 274 47 394 47 414-1 44-23 197-60 411-3 14-10 20-12 21m-191-1056c-89 0-174 36-246 104a699 699 0 0 0-191 492c-6 341 181 617 425 627l196 8c94 3 175-66 192-167 40-235 61-382 62-437 0-13 1-53-48-439-13-100-89-176-182-180l-195-8h-13" style="fill:#371a45;fill-opacity:1;fill-rule:nonzero;stroke:none" transform="matrix(.13333 0 0 -.13333 0 5333)"/><path d="M23676 21220c5-289-148-530-341-538s-354 220-359 510c-5 289 148 530 341 538 194 8 354-221 359-510" style="fill:#22a7f0;fill-opacity:1;fill-rule:nonzero;stroke:none" transform="matrix(.13333 0 0 -.13333 0 5333)"/><path d="M22986 21083a769 769 0 0 0 0 1v-1m-7 188v1-1" style="fill:#bedaed;fill-opacity:1;fill-rule:nonzero;stroke:none" transform="matrix(.13333 0 0 -.13333 0 5333)"/><path d="M23676 21191v29-29m-10 141c-2 11-3 21-6 31a537 537 0 0 1 6-31" style="fill:#fff;fill-opacity:1;fill-rule:nonzero;stroke:none" transform="matrix(.13333 0 0 -.13333 0 5333)"/><path d="M23036 21275c-16 33-29 68-40 106 48 198 173 343 321 349h10c64 0 124-26 176-71a537 537 0 0 0 147-252c-10-38-22-75-36-109-64 132-167 217-283 217h-10c-120-5-224-100-285-240" style="fill:#bce4fa;fill-opacity:1;fill-rule:nonzero;stroke:none" transform="matrix(.13333 0 0 -.13333 0 5333)"/><path d="M23676 21220" style="fill:#cdc6d0;fill-opacity:1;fill-rule:nonzero;stroke:none" transform="matrix(.13333 0 0 -.13333 0 5333)"/><path d="M23140 20762a563 563 0 0 0-155 322h1c21-136 77-250 154-322m-164 428v2-2m3 82c3 38 9 74 17 109v-3c-8-34-14-69-17-106" style="fill:#2b69a5;fill-opacity:1;fill-rule:nonzero;stroke:none" transform="matrix(.13333 0 0 -.13333 0 5333)"/><path d="M23179 20730a339 339 0 0 1 0 0" style="fill:#371a45;fill-opacity:1;fill-rule:nonzero;stroke:none" transform="matrix(.13333 0 0 -.13333 0 5333)"/><path d="M23325 20682c-52 0-101 17-146 48-13 10-27 20-39 32a564 564 0 0 0-154 322c8 69 25 134 50 191 64-132 167-216 283-216h10c120 5 224 99 285 239 26-55 46-117 56-186l4 40a584 584 0 0 0-175-401 269 269 0 0 0-174-69m-329 696v3-3" style="fill:#2784c5;fill-opacity:1;fill-rule:nonzero;stroke:none" transform="matrix(.13333 0 0 -.13333 0 5333)"/><path d="M22986 21084c-6 34-9 69-10 106v2c0 27 1 53 3 79v1a751 751 0 0 0 7-188" style="fill:#9caac3;fill-opacity:1;fill-rule:nonzero;stroke:none" transform="matrix(.13333 0 0 -.13333 0 5333)"/><path d="M23674 21152a781 781 0 0 1 2 68 730 730 0 0 0-2-68" style="fill:#cdc6d0;fill-opacity:1;fill-rule:nonzero;stroke:none" transform="matrix(.13333 0 0 -.13333 0 5333)"/><path d="M22986 21084a765 765 0 0 0 10 294v3c11-38 24-74 40-106-25-57-42-122-50-191m684 28c-10 68-30 131-56 186 14 34 26 71 36 109l10-44a764 764 0 0 0 10-251" style="fill:#9bb1cd;fill-opacity:1;fill-rule:nonzero;stroke:none" transform="matrix(.13333 0 0 -.13333 0 5333)"/><path d="M23327 21642h-6c-143-6-261-211-257-449 3-152 53-289 136-367 28-27 74-59 131-56 144 6 261 211 257 449-2 152-53 289-135 367-28 26-71 56-126 56zm-2-1048c-89 0-173 36-246 105a699 699 0 0 0-190 491c-6 342 181 617 425 627 94 3 183-32 259-104a699 699 0 0 0 191-491c6-342-181-617-425-627l-14-1M24103 19751c-49 0-88 39-88 87l-2 957c0 106 46 205 123 267l240 191c36 29 58 79 57 132l-25 1284c0 49 38 89 86 90 49-1 89-38 90-86l24-1285c2-108-44-209-122-272l-241-192c-35-27-56-77-56-128l2-958c0-48-40-87-88-87" style="fill:#371a45;fill-opacity:1;fill-rule:nonzero;stroke:none" transform="matrix(.13333 0 0 -.13333 0 5333)"/><path d="M19399 21976s-255-212-272-545c-21-385 198-545 198-545 0 1 960-554 2525-219 0 0 471 622-32 985 0 0-1649-220-2419 324" style="fill:#fff;fill-opacity:1;fill-rule:nonzero;stroke:none" transform="matrix(.13333 0 0 -.13333 0 5333)"/><path d="M20869 20672c-877 0-1417 273-1482 307-27 24-164 157-149 446 6 104 39 196 80 269a638 638 0 0 1 388-470c245-97 705-235 1337-235 264 0 558 24 878 86-32-135-102-253-137-308-335-69-641-95-915-95" style="fill:#cdc6d0;fill-opacity:1;fill-rule:nonzero;stroke:none" transform="matrix(.13333 0 0 -.13333 0 5333)"/><path d="M19387 20979c85-45 988-501 2397-212 53 82 182 306 150 517-15 99-64 182-148 252-273-32-1620-159-2372 297a697 697 0 0 1-176-408c-15-289 122-422 149-446m1471-532c-980 0-1558 325-1589 343l-10 7c-10 7-267 200-243 640a942 942 0 0 0 311 624c39 33 95 35 136 6 726-513 2324-307 2340-305 28 4 57-3 80-20a630 630 0 0 0 271-426c54-356-204-702-215-716-16-22-39-36-66-42-373-80-714-111-1015-111" style="fill:#371a45;fill-opacity:1;fill-rule:nonzero;stroke:none" transform="matrix(.13333 0 0 -.13333 0 5333)"/><path d="M20129 22581c-1507-1076-3301-1368-5204-1209a2052 2052 0 0 0-1575 952 3171 3171 0 0 0-352 790l-14 49c-70 260-103 516-95 749a685 685 0 0 0 1060 555c197-128 374-322 556-506 2009-246 3555 339 4723 1600l698-2308 203-672" style="fill:#fff;fill-opacity:1;fill-rule:nonzero;stroke:none" transform="matrix(.13333 0 0 -.13333 0 5333)"/><path d="M19323 25473c-1254-1384-3013-1878-4834-1640-29 3-56 17-75 37-192 184-357 372-567 495-314 192-747-19-798-380-37-436 84-876 266-1270a1964 1964 0 0 1 1805-1199c154-13 365-21 519-27 978-26 1964 91 2893 401a7798 7798 0 0 1 1572 726 43 43 0 0 0 50-70 5562 5562 0 0 0-1873-1015c-853-272-1757-362-2649-351-158 6-375 11-534 24-929 20-1689 528-2064 1379-205 450-340 956-284 1454 71 430 509 750 940 677 387-58 660-414 907-662l-76 37c423-50 849-67 1272-38 843 55 1672 311 2378 778 353 231 674 509 962 820 115 120 305-45 190-176" style="fill:#371a45;fill-opacity:1;fill-rule:nonzero;stroke:none" transform="matrix(.13333 0 0 -.13333 0 5333)"/><path d="M15273 22884c9 781-147 1229-368 1358-120 70-274-8-298-145-38-222-94-424-197-578-162-99-385-279-436-574l1299-61" style="fill:#fff;fill-opacity:1;fill-rule:nonzero;stroke:none" transform="matrix(.13333 0 0 -.13333 0 5333)"/><path d="M13934 22952c13 273 195 517 409 678l-41-39c91 147 138 336 172 528a334 334 0 0 0 490 238c188-112 276-332 327-527 77-311 79-635 28-947a47 47 0 0 0-93 1c-30 204-55 404-92 598-46 217-95 466-257 620-49 50-119 45-137-28-18-105-40-211-75-316-35-109-82-219-153-318-9-14-21-24-35-31a987 987 0 0 1-282-183 671 671 0 0 1-180-289c-14-46-85-33-81 15M17519 21352h-7c-72 4-126 65-123 136 40 743-184 2036-789 2454a129 129 0 0 0 147 213c693-479 944-1856 901-2680-4-69-61-123-129-123M13054 23018l-56 96-25 45 11 4 92 35c-10-60-18-120-22-181" style="fill:#371a45;fill-opacity:1;fill-rule:nonzero;stroke:none" transform="matrix(.13333 0 0 -.13333 0 5333)"/><path d="M15904 21486c-89 0-177 1-265 3-154 6-365 14-519 27a1958 1958 0 0 0-1708 1005c39-39 79-75 122-109 145-115 315-194 490-256 371-130 758-179 1150-179 512 0 1032 83 1537 172 213 38 426 77 639 121 33-236 46-464 43-663-491-83-990-121-1489-121" style="fill:#cdc6d0;fill-opacity:1;fill-rule:nonzero;stroke:none" transform="matrix(.13333 0 0 -.13333 0 5333)"/><path d="M15866 21332c-310 0-624 14-941 40a2052 2052 0 0 0-1575 952 3171 3171 0 0 0-300 629l4 65c103-178 215-353 358-497 351-622 975-991 1708-1005 154-13 365-21 519-27l264-3c499 0 999 38 1490 121 0-41-2-80-4-119l2-30a8855 8855 0 0 0-1526-126" style="fill:#371a45;fill-opacity:1;fill-rule:nonzero;stroke:none" transform="matrix(.13333 0 0 -.13333 0 5333)"/><path d="M17652 21656c1 205-15 433-48 668 672 152 1329 360 1914 718 127 77 266 163 408 211l191-632a7798 7798 0 0 0-1584-731c-289-96-583-174-881-234" style="fill:#cdc6d0;fill-opacity:1;fill-rule:nonzero;stroke:none" transform="matrix(.13333 0 0 -.13333 0 5333)"/><path d="M17649 21508c2 47 3 97 3 148 298 60 592 138 880 234a7798 7798 0 0 1 1585 731l12-40a6528 6528 0 0 0-2480-1073" style="fill:#371a45;fill-opacity:1;fill-rule:nonzero;stroke:none" transform="matrix(.13333 0 0 -.13333 0 5333)"/><path d="M17391 21458c-1 10-2 20-1 30a4478 4478 0 0 1-39 782l253 54a4767 4767 0 0 0 45-816c-85-18-171-35-258-50" style="fill:#371a45;fill-opacity:1;fill-rule:nonzero;stroke:none" transform="matrix(.13333 0 0 -.13333 0 5333)"/><path d="M25639 28441a5159 5159 0 0 0-1869-2562 5304 5304 0 0 0-2749-1014c-1841-136-3701 686-4795 2310-1613 2393-951 5620 1476 7208a5301 5301 0 0 0 3288 855 5355 5355 0 0 0 1955-518 5224 5224 0 0 0 2072-1793 5127 5127 0 0 0 622-4486" style="fill:#fff;fill-opacity:1;fill-rule:nonzero;stroke:none" transform="matrix(.13333 0 0 -.13333 0 5333)"/><path d="M20613 35238a5317 5317 0 0 1-1428-195 5287 5287 0 0 1-1476-671 5149 5149 0 0 1-2250-3308 5093 5093 0 0 1 777-3881 5302 5302 0 0 1 5904-2100 5264 5264 0 0 1 1623 806 5166 5166 0 0 1 1864 2556l12-4-13 4a5100 5100 0 0 1-620 4475 5231 5231 0 0 1-2907 2109 5360 5360 0 0 1-1486 209m14-10401a5322 5322 0 0 0-4412 2331 5120 5120 0 0 0-782 3901 5174 5174 0 0 0 2262 3325 5312 5312 0 0 0 3295 857 5376 5376 0 0 0 1960-520 5257 5257 0 0 0 2077-1797 5126 5126 0 0 0 624-4498 5192 5192 0 0 0-2104-2728 5331 5331 0 0 0-2920-871" style="fill:#371a45;fill-opacity:1;fill-rule:nonzero;stroke:none" transform="matrix(.13333 0 0 -.13333 0 5333)"/><path d="M20627 24980a5191 5191 0 0 0-4024 1903c186 53 356 154 506 297a4673 4673 0 0 1 1570-1495 5188 5188 0 0 1 2362-689l-29-2c-129-10-257-15-385-15m697 268c-897 0-1770 224-2514 661a4417 4417 0 0 0-1524 1476c60 83 113 173 159 268 60-52 121-102 183-151a4192 4192 0 0 1 2430-1753c419-117 849-173 1280-173 1041 0 2084 330 2982 949a6933 6933 0 0 0-200-193 5212 5212 0 0 0-650-504l-6-4-5-3-6-4-5-3-1-1-4-3h-1l-5-3-1-1-4-3h-1l-4-3-1-1-5-2-1-1-4-3h-1l-5-3v-1l-5-3h-1l-4-3-1-1-5-2-1-1-4-3h-1l-5-3v-1l-5-3h-1l-4-3h-1l-5-4-5-3h-1l-5-3-5-4-11-6a5177 5177 0 0 0-578-306 5524 5524 0 0 0-1438-192m-5809 5446a5096 5096 0 0 0 129 651c8-196 28-392 59-588-64-15-127-36-188-63" style="fill:#cdc6d0;fill-opacity:1;fill-rule:nonzero;stroke:none" transform="matrix(.13333 0 0 -.13333 0 5333)"/><path d="M20613 35151a5215 5215 0 0 1-2856-851 5061 5061 0 0 1-2213-3253 5006 5006 0 0 1 765-3816 5214 5214 0 0 1 5806-2064 5204 5204 0 0 1 2025 1143 5079 5079 0 0 1 1404 2162 5013 5013 0 0 1-610 4399 5143 5143 0 0 1-2859 2074 5260 5260 0 0 1-1462 206m15-10401a5410 5410 0 0 0-4485 2369 5205 5205 0 0 0-795 3967 5261 5261 0 0 0 2299 3381 5399 5399 0 0 0 3350 871 5463 5463 0 0 0 1991-528 5343 5343 0 0 0 2112-1827 5213 5213 0 0 0 634-4574 5278 5278 0 0 0-2138-2774 5427 5427 0 0 0-2968-885" style="fill:#371a45;fill-opacity:1;fill-rule:nonzero;stroke:none" transform="matrix(.13333 0 0 -.13333 0 5333)"/><path d="M20613 35122a5201 5201 0 0 1-1396-191 5172 5172 0 0 1-1444-656 5033 5033 0 0 1-2200-3234 4978 4978 0 0 1 760-3793 5185 5185 0 0 1 5774-2054 5145 5145 0 0 1 1587 789 5049 5049 0 0 1 1822 2498 4985 4985 0 0 1-607 4374 5114 5114 0 0 1-2842 2062 5231 5231 0 0 1-1454 205m15-10401a5439 5439 0 0 0-4509 2382 5234 5234 0 0 0-800 3989 5290 5290 0 0 0 2312 3400 5430 5430 0 0 0 3368 875 5492 5492 0 0 0 2002-531 5373 5373 0 0 0 2123-1837 5241 5241 0 0 0 638-4599 5309 5309 0 0 0-2150-2789 5466 5466 0 0 0-2984-890" style="fill:#371a45;fill-opacity:1;fill-rule:nonzero;stroke:none" transform="matrix(.13333 0 0 -.13333 0 5333)"/><path d="M25060 27236c-2648-2645-7063-1904-7958 1670-609 2431 1337 4895 3744 5322 1752 310 3600-142 4832-2690 0 0 369-1211 184-2096-186-884-518-1714-518-1714l-284-492" style="fill:#371a45;fill-opacity:1;fill-rule:nonzero;stroke:none" transform="matrix(.13333 0 0 -.13333 0 5333)"/><path d="M17103 28906c894-3574 5309-4315 7957-1670l57 100c-3234-1196-6937 172-7910 3769a3862 3862 0 0 1-104-2199" style="fill:#220f2d;fill-opacity:1;fill-rule:nonzero;stroke:none" transform="matrix(.13333 0 0 -.13333 0 5333)"/><path d="M21816 34723c-328 0-669-31-1022-94-1376-243-2670-1117-3460-2336-706-1090-936-2328-645-3487 318-1269 1051-2272 2121-2898 1140-668 2580-839 3952-469a5197 5197 0 0 1 1358 892 5048 5048 0 0 1 1396 2150 4985 4985 0 0 1-607 4374 5114 5114 0 0 1-2009 1742c-341 84-703 126-1084 126m-491-9734c-944 0-1862 236-2646 696-1131 662-1906 1720-2241 3058-308 1229-67 2540 679 3691 829 1278 2186 2194 3632 2450 803 142 1552 129 2227-39 8-2 17-5 25-9a5373 5373 0 0 0 2123-1837 5241 5241 0 0 0 638-4599 5309 5309 0 0 0-2150-2789 5466 5466 0 0 0-773-419 5785 5785 0 0 0-1514-203" style="fill:#371a45;fill-opacity:1;fill-rule:nonzero;stroke:none" transform="matrix(.13333 0 0 -.13333 0 5333)"/><path d="M21769 34237c-292 0-595-27-910-83-1235-219-2396-1002-3104-2096-635-979-841-2092-580-3134 380-1517 1445-2622 2923-3032 1693-468 3570 64 4902 1391l276 478c27 69 337 864 512 1697 174 826-154 1964-180 2053-878 1812-2167 2726-3839 2726m-431-8662c-430 0-861 57-1280 173-1531 424-2635 1568-3028 3139-272 1083-59 2238 599 3252 731 1128 1929 1937 3204 2163 2195 388 3848-531 4913-2732l4-10c16-51 373-1240 185-2133-185-881-519-1718-522-1727l-5-9-283-492c-3-6-7-11-12-16-1042-1040-2411-1608-3775-1608" style="fill:#371a45;fill-opacity:1;fill-rule:nonzero;stroke:none" transform="matrix(.13333 0 0 -.13333 0 5333)"/><path d="M14759 28713c126-1019 842-1799 1599-1743 757 55 1268 926 1142 1944l-3 20c-132 1008-844 1778-1596 1723-584-43-1022-572-1133-1280-33-209-37-433-9-664" style="fill:#fff;fill-opacity:1;fill-rule:nonzero;stroke:none" transform="matrix(.13333 0 0 -.13333 0 5333)"/><path d="M16281 27096c-99 0-197 16-293 46a876 876 0 0 1 466 235c198 155 339 409 380 735l8 72c31 222 20 459-35 693a874 874 0 0 1 324-145c15-2 30-2 44-2 83 0 151 29 207 72 42-513-88-1005-355-1330a964 964 0 0 0-747-376" style="fill:#cdc6d0;fill-opacity:1;fill-rule:nonzero;stroke:none" transform="matrix(.13333 0 0 -.13333 0 5333)"/><path d="M15978 30531a964 964 0 0 1-747-376c-283-346-411-879-344-1427 118-949 773-1680 1461-1630a964 964 0 0 1 679 374c284 345 412 879 345 1426-114 918-731 1633-1394 1633m305-3693c-792 0-1523 812-1652 1859-78 625 69 1216 401 1622 231 281 528 442 860 467 823 60 1602-772 1736-1856 78-626-68-1217-401-1622a1217 1217 0 0 0-944-470" style="fill:#371a45;fill-opacity:1;fill-rule:nonzero;stroke:none" transform="matrix(.13333 0 0 -.13333 0 5333)"/><path d="M14759 27959c343-724 1047-1021 1572-663s673 1235 330 1958c-343 724-1047 1021-1572 663-526-357-673-1234-330-1958" style="fill:#fff;fill-opacity:1;fill-rule:nonzero;stroke:none" transform="matrix(.13333 0 0 -.13333 0 5333)"/><path d="M15572 30056c-169 0-330-50-476-150-519-353-665-1224-325-1941 189-399 495-681 839-775 253-68 500-28 714 117 519 354 665 1225 325 1942-189 399-495 681-839 774-80 22-160 33-238 33m276-2925c-80 0-163 11-245 33-352 96-664 383-856 789-346 729-196 1615 334 1976a868 868 0 0 0 736 120c352-95 664-383 856-789 345-728 195-1614-334-1975a862 862 0 0 0-491-154" style="fill:#371a45;fill-opacity:1;fill-rule:nonzero;stroke:none" transform="matrix(.13333 0 0 -.13333 0 5333)"/><path d="M15966 27210c-119 0-244 25-371 79-595 252-1004 1029-915 1735 6 42 13 84 21 123 154-407 447-754 809-907 127-54 252-79 371-79 406 0 743 296 847 780 47-123 81-252 100-382 35-516-146-1007-504-1252-26-17-51-33-78-47-87-33-182-50-280-50" style="fill:#cdc6d0;fill-opacity:1;fill-rule:nonzero;stroke:none" transform="matrix(.13333 0 0 -.13333 0 5333)"/><path d="M16454 27377c210 195 343 484 388 807l-8-72c-41-326-182-580-380-735" style="fill:#a79bad;fill-opacity:1;fill-rule:nonzero;stroke:none" transform="matrix(.13333 0 0 -.13333 0 5333)"/><path d="M16246 27260c27 14 52 30 78 47 358 245 539 736 504 1252 19-124 24-250 14-375-45-322-178-612-388-807-63-49-133-89-208-117" style="fill:#371a45;fill-opacity:1;fill-rule:nonzero;stroke:none" transform="matrix(.13333 0 0 -.13333 0 5333)"/><path d="m15556 30019-40-1a650 650 0 0 1-460-254c-224-272-323-710-264-1171 97-762 587-1355 1091-1322 173 11 332 99 460 254 224 272 323 710 264 1171-95 742-561 1323-1051 1323zm289-3008c-618 0-1198 680-1309 1549-68 530 52 1042 320 1368a901 901 0 0 0 643 348c637 41 1250-652 1364-1547 68-531-52-1042-321-1369a902 902 0 0 0-697-349" style="fill:#371a45;fill-opacity:1;fill-rule:nonzero;stroke:none" transform="matrix(.13333 0 0 -.13333 0 5333)"/><path d="M24676 28768s107 473-50 1421c-52 311-124 662-330 1129a2173 2173 0 0 1-718 887l-4 3c-1008 725-2388 844-3183 844-386 0-635-28-635-28-74 67 848 681 2150 681 360 0 749-47 1154-166 1000-292 1576-1175 1886-1873 103-231 176-442 226-605v-1l14-56c18-81 34-161 46-239 123-791-92-1409-556-1997M18392 29621c-20 0-41 1-61 3-388 38-666 430-620 875 43 422 360 740 722 740 21 0 41-1 62-3 387-39 665-431 619-876-42-421-359-739-722-739M18473 28746a5411 5411 0 0 0-384 476 285 285 0 0 0 237 73c158-30 258-200 224-382-12-64-40-121-77-167" style="fill:#9b8da2;fill-opacity:1;fill-rule:nonzero;stroke:none" transform="matrix(.13333 0 0 -.13333 0 5333)"/><path d="M18248 28633c-16 0-31 1-47 4-158 29-258 200-224 381 16 83 57 154 112 204 120-167 249-326 384-476a294 294 0 0 0-225-113" style="fill:#918796;fill-opacity:1;fill-rule:nonzero;stroke:none" transform="matrix(.13333 0 0 -.13333 0 5333)"/></svg>